<?xml version="1.0" encoding="UTF-8"?>
<svg id="Layer_1" data-name="Layer 1" xmlns="http://www.w3.org/2000/svg" viewBox="0 0 8288.15 1572.01">
  <defs>
    <style>
      .cls-1 {
        letter-spacing: 0em;
      }

      .cls-2 {
        letter-spacing: 0em;
      }

      .cls-3 {
        fill: #dbc392;
      }

      .cls-4 {
        fill: none;
      }

      .cls-5 {
        fill: #c79337;
      }

      .cls-6 {
        letter-spacing: -.04em;
      }

      .cls-7 {
        fill: #fff;
        font-family: Geist-Bold, Geist;
        font-size: 1000px;
        font-weight: 700;
      }

      .cls-8 {
        letter-spacing: 0em;
      }

      .cls-9 {
        letter-spacing: 0em;
      }
    </style>
  </defs>
  <g>
    <rect class="cls-4" width="1572.01" height="1572.01"/>
    <path class="cls-5" d="M965.64,257.14c2.97-2.11,3.18.83,3.58,2.27.91,3.27,1.38,6.65,2.04,9.99,1.37,6.93,2.8,13.86,4.12,20.8.88,4.63.56,5.03-4.07,6.08-2.82.64-5.64,1.26-9.56,2.14,1.64,2.04,2.66,3.86,4.17,5.05,2.47,1.96,2.62,3.74.68,6.1-10.27,12.51-20.55,25.02-30.72,37.61-13.27,16.42-26.49,32.88-39.63,49.41-11.56,14.53-22.94,29.19-34.53,43.7-.68.85-2.62,1.37-3.74,1.08-6.35-1.62-12.62-3.58-18.94-5.33-1.67-.46-3.42-.59-5.14-.87-.22.31-.45.61-.67.92,1.08,1.23,2,2.64,3.25,3.66,5.89,4.81,11.77,9.65,17.88,14.16,2.25,1.66,1.46,2.88.32,4.33-8.37,10.64-16.9,21.16-25.13,31.92-6.15,8.04-11.91,16.37-17.84,24.57-6.95,9.62-14.09,19.12-20.78,28.92-6.25,9.16-12,18.67-18,28-1.78,2.76-3.7,5.43-5.51,8.17-1.12,1.7-2.2,2.03-4.41,1.39-14.07-4.05-28.22-7.8-42.35-11.61-1.31-.35-2.7-.4-5.2-.76,1.25,1.47,1.71,2.3,2.41,2.79,8.47,5.99,16.96,11.94,25.47,17.86,3.73,2.59,7.53,5.08,11.27,7.65,1.81,1.25,1.96,2.8.7,4.58-5.96,8.48-12,16.9-17.83,25.47-5.2,7.64-10.25,15.38-15.2,23.19-6.89,10.88-13.74,21.8-20.39,32.83-6.2,10.29-12.22,20.68-18.11,31.15-5.63,10.01-11.04,20.15-16.42,30.3-3.91,7.38-7.58,14.88-11.4,22.31-1.32,2.57-3.23,3.77-6.4,3.76-8.59-.02-17.18.44-25.77.66-2.72.07-3.55,1.04-2.1,3.55,1.19,2.07,2.12,4.31,3.43,6.3,1.63,2.49,1.12,3.89-1.65,4.84-4.77,1.64-9.49,3.44-14.25,5.15-12.25,4.39-24.53,8.73-36.76,13.17-3.66,1.33-3.85,2.26-1.28,5.03,4.16,4.47,8.4,8.87,12.58,13.33.47.5.75,1.18,1.28,2.04h-24.9c-.19.24-.38.48-.57.72,8.56,5.61,17.11,11.23,25.67,16.84-.08.35-.16.7-.24,1.05-5.33,1.25-10.62,2.66-15.98,3.71-11.39,2.23-22.82,4.25-34.22,6.41-11.9,2.26-23.76,4.74-35.7,6.78-3.56.61-4.93,2.4-5.62,5.56-3.01,13.7-6.07,27.4-9.16,41.08-3.06,13.52-6.35,26.99-9.21,40.54-2.53,11.98-4.99,23.99-6.78,36.09-1.57,10.64-2.4,21.41-3.12,32.15-.61,9.14-.68,18.33-.78,27.5-.04,3.45-1.16,6.05-3.78,8.3-7.33,6.28-14.54,12.7-22.07,18.8.22-10.05.42-19.86,1.29-29.61,1.26-14.14,2.5-28.32,4.67-42.33,2.72-17.52,5.88-35,9.73-52.3,6.64-29.79,15.65-58.91,26.17-87.59,9.83-26.79,21.05-52.98,33.53-78.61,7.42-15.23,15.29-30.27,23.65-45.01,11.04-19.47,22.18-38.92,34.33-57.7,14.91-23.04,30.5-45.66,46.57-67.91,13.3-18.41,27.61-36.1,41.65-53.97,7.85-9.98,15.92-19.79,24.13-29.48,8.71-10.28,17.56-20.46,26.62-30.44,12.94-14.24,25.96-28.42,39.26-42.32,11.11-11.61,22.63-22.83,34.06-34.14,13.08-12.94,26.24-25.8,39.41-38.65,4.2-4.09,8.49-8.1,12.84-12.03,12.19-11,24.42-21.94,36.66-32.88,7.02-6.28,14-12.6,21.14-18.73,9.44-8.11,19.01-16.08,28.56-24.06,8.09-6.76,16.26-13.42,24.37-20.15,6.15-5.09,12.27-10.22,18.4-15.33Z"/>
    <path class="cls-5" d="M607.91,1316.41c-2.98,2.11-3.18-.83-3.58-2.27-.91-3.27-1.38-6.65-2.04-9.99-1.37-6.93-2.8-13.86-4.12-20.8-.88-4.63-.56-5.03,4.07-6.08,2.82-.64,5.64-1.26,9.56-2.13-1.64-2.04-2.66-3.86-4.17-5.05-2.47-1.96-2.62-3.74-.68-6.1,10.27-12.51,20.55-25.02,30.72-37.61,13.27-16.42,26.49-32.88,39.63-49.41,11.56-14.53,22.94-29.19,34.53-43.7.68-.85,2.62-1.37,3.73-1.08,6.35,1.62,12.62,3.58,18.94,5.33,1.66.46,3.42.59,5.13.86.23-.31.45-.61.68-.92-1.08-1.23-2-2.65-3.25-3.66-5.89-4.81-11.77-9.65-17.88-14.16-2.25-1.66-1.46-2.88-.32-4.33,8.37-10.64,16.9-21.16,25.13-31.92,6.15-8.04,11.91-16.37,17.84-24.57,6.95-9.62,14.09-19.12,20.78-28.92,6.25-9.16,12-18.67,18-28,1.78-2.76,3.7-5.43,5.51-8.17,1.12-1.7,2.2-2.03,4.41-1.39,14.07,4.05,28.22,7.8,42.35,11.61,1.31.35,2.7.4,5.19.75-1.25-1.47-1.71-2.3-2.41-2.79-8.47-5.99-16.96-11.94-25.47-17.86-3.73-2.59-7.53-5.08-11.27-7.65-1.81-1.25-1.95-2.8-.7-4.58,5.96-8.48,12-16.9,17.83-25.47,5.2-7.64,10.25-15.38,15.2-23.19,6.89-10.88,13.74-21.8,20.39-32.83,6.2-10.29,12.22-20.68,18.11-31.15,5.63-10.01,11.04-20.15,16.42-30.3,3.91-7.38,7.58-14.88,11.4-22.31,1.32-2.57,3.24-3.77,6.4-3.76,8.59.02,17.18-.44,25.77-.66,2.72-.07,3.54-1.04,2.1-3.55-1.19-2.07-2.12-4.31-3.43-6.3-1.63-2.48-1.13-3.89,1.65-4.84,4.78-1.64,9.49-3.44,14.25-5.15,12.25-4.39,24.53-8.73,36.76-13.17,3.66-1.33,3.85-2.26,1.28-5.03-4.16-4.47-8.4-8.87-12.58-13.33-.47-.5-.75-1.18-1.28-2.04h24.9c.19-.24.38-.48.57-.72-8.56-5.62-17.11-11.23-25.67-16.85.08-.35.16-.7.24-1.05,5.33-1.25,10.62-2.66,15.98-3.71,11.39-2.23,22.82-4.25,34.22-6.41,11.9-2.26,23.76-4.74,35.7-6.78,3.56-.61,4.93-2.4,5.62-5.56,3.01-13.7,6.07-27.4,9.16-41.08,3.06-13.52,6.35-26.99,9.21-40.54,2.53-11.98,4.99-23.99,6.78-36.09,1.57-10.64,2.4-21.41,3.12-32.15.61-9.14.68-18.33.78-27.5.04-3.45,1.16-6.05,3.78-8.3,7.33-6.28,14.54-12.71,22.07-18.8-.22,10.05-.42,19.86-1.28,29.61-1.26,14.14-2.5,28.32-4.67,42.33-2.72,17.52-5.88,35-9.73,52.3-6.64,29.79-15.65,58.91-26.17,87.59-9.83,26.79-21.05,52.98-33.53,78.61-7.42,15.23-15.29,30.27-23.65,45.01-11.04,19.47-22.18,38.92-34.33,57.7-14.91,23.04-30.5,45.66-46.57,67.91-13.3,18.41-27.61,36.1-41.65,53.97-7.85,9.98-15.92,19.79-24.13,29.48-8.71,10.28-17.56,20.46-26.62,30.44-12.94,14.24-25.96,28.42-39.26,42.32-11.11,11.61-22.63,22.83-34.06,34.14-13.08,12.94-26.24,25.8-39.42,38.65-4.2,4.09-8.49,8.1-12.84,12.03-12.19,11-24.42,21.94-36.66,32.88-7.02,6.28-14,12.6-21.14,18.73-9.44,8.11-19.01,16.08-28.56,24.06-8.09,6.76-16.26,13.42-24.37,20.15-6.15,5.09-12.27,10.22-18.4,15.33Z"/>
    <path class="cls-3" d="M965.32,257.16c-5.81,5.09-11.93,10.22-18.08,15.31-8.12,6.73-16.28,13.39-24.37,20.15-9.56,7.98-19.12,15.95-28.56,24.06-7.14,6.13-14.12,12.45-21.14,18.73-12.24,10.94-24.47,21.89-36.66,32.88-4.35,3.93-8.64,7.93-12.84,12.03-13.17,12.85-26.33,25.71-39.41,38.65-11.43,11.3-22.95,22.53-34.06,34.14-13.3,13.9-26.32,28.07-39.26,42.32-9.06,9.97-17.9,20.16-26.62,30.44-8.21,9.69-16.29,19.49-24.13,29.48-14.04,17.87-28.36,35.55-41.65,53.97-16.06,22.25-31.66,44.87-46.57,67.91-12.15,18.78-23.29,38.24-34.33,57.7-8.36,14.74-16.24,29.78-23.65,45.01-12.48,25.63-23.7,51.82-33.53,78.61-10.52,28.67-19.53,57.79-26.17,87.59-3.86,17.3-7.02,34.78-9.73,52.3-2.17,14.02-3.41,28.19-4.67,42.33-.87,9.75-1.06,19.56-1.53,29.7-1.18-.31-2.81-.68-3.52-1.69-5.14-7.38-10.19-14.82-15.07-22.37-4.67-7.23-9.19-14.56-13.56-21.97-.83-1.4-1.11-3.45-.87-5.1,1.52-10.49,3.56-20.92,4.82-31.44,1.34-11.17,4.92-21.56,9.06-31.91,8.03-20.08,15.88-40.23,23.66-60.41,6.65-17.25,12.44-34.86,19.89-51.76,3.55-8.05-.48-13.91-2.35-20.44-2.56-8.97-6.2-17.63-9.22-26.48-.73-2.15-.41-3.78,2.43-4.95,8.44-3.47,16.65-7.52,24.97-11.28,2.89-1.3,3.19-2.74,1.53-5.61-4.61-7.97-8.8-16.19-13.81-25.51,7.25,2.25,13.58,4.22,19.9,6.19.27-.38.54-.75.82-1.13-1.34-1.69-2.52-3.55-4.05-5.06-7.5-7.4-15.1-14.72-22.65-22.07-.54-.52-1.01-1.1-2.07-2.26,4.9-1.03,9.22-2.43,13.62-2.73,4.59-.31,4.33-2.93,3.84-5.94-.52-3.23-1.11-6.48-1.97-9.63-1.13-4.11.04-7.76,1.7-11.39,9.23-20.15,18.46-40.29,27.69-60.44.74-1.61,1.61-3.18,2.13-4.86,1.2-3.88,3.49-3.4,6.44-2.06,14.07,6.39,28.19,12.69,42.31,18.97,1.08.48,2.34.55,3.51.82.27-.27.54-.55.8-.82-1.5-2.47-2.94-4.97-4.51-7.4-9.65-14.99-19.37-29.95-28.92-45-.67-1.06-.81-3.2-.19-4.24,8.75-14.53,17.41-29.12,26.62-43.35,9.7-14.98,19.65-29.81,30.07-44.29,10.72-14.88,21.76-29.57,33.44-43.69,5.09-6.15,12-10.84,18.3-15.94,15.65-12.66,31.32-25.3,47.18-37.69,10.35-8.09,20.96-15.87,31.61-23.58,18.87-13.65,37.84-27.16,56.79-40.7,2.88-2.06,5.78-4.15,8.88-5.84,1.13-.62,3.16-.66,4.28-.05,7.66,4.17,15.18,8.59,22.74,12.93,4.86,2.79,5.54,2.49,6.86-2.86,3.06-12.36,6.18-24.71,9.26-37.07.8-3.22,2.23-4.33,5.96-3.71,11.07,1.85,22.25,3.09,33.39,4.53,2.04.26,3.3-.37,3.6-2.77.95-7.39,2.19-14.74,3.14-22.12.32-2.48,1.73-3.5,3.86-4,14.72-3.41,29.49-6.63,44.16-10.28,11-2.73,21.83-6.11,32.79-8.99,5.72-1.51,11.55-2.57,17.65-3.86Z"/>
    <path class="cls-3" d="M608.23,1316.39c5.81-5.09,11.93-10.22,18.08-15.31,8.12-6.73,16.28-13.39,24.37-20.15,9.56-7.98,19.12-15.95,28.56-24.06,7.14-6.13,14.12-12.45,21.14-18.73,12.24-10.94,24.47-21.89,36.66-32.88,4.35-3.93,8.64-7.93,12.84-12.03,13.17-12.85,26.33-25.71,39.42-38.65,11.43-11.3,22.95-22.53,34.06-34.14,13.3-13.9,26.32-28.07,39.26-42.32,9.06-9.98,17.9-20.16,26.62-30.44,8.21-9.69,16.29-19.49,24.13-29.48,14.04-17.87,28.36-35.55,41.65-53.97,16.06-22.25,31.66-44.87,46.57-67.91,12.15-18.78,23.29-38.24,34.33-57.7,8.36-14.74,16.24-29.78,23.65-45.01,12.48-25.63,23.7-51.82,33.53-78.61,10.52-28.67,19.53-57.8,26.17-87.59,3.86-17.3,7.02-34.78,9.73-52.3,2.17-14.02,3.41-28.19,4.67-42.33.87-9.75,1.06-19.56,1.53-29.7,1.18.31,2.81.68,3.52,1.69,5.14,7.38,10.19,14.82,15.07,22.37,4.67,7.23,9.19,14.56,13.56,21.97.83,1.4,1.11,3.45.87,5.1-1.52,10.49-3.56,20.92-4.82,31.44-1.34,11.17-4.92,21.56-9.06,31.91-8.03,20.08-15.88,40.23-23.65,60.41-6.65,17.25-12.44,34.86-19.89,51.76-3.55,8.05.48,13.91,2.35,20.44,2.56,8.97,6.2,17.63,9.22,26.48.73,2.14.41,3.78-2.43,4.95-8.44,3.47-16.65,7.52-24.97,11.28-2.89,1.3-3.19,2.74-1.53,5.61,4.61,7.97,8.8,16.19,13.81,25.51-7.25-2.25-13.58-4.22-19.9-6.19-.27.38-.54.75-.82,1.13,1.34,1.69,2.52,3.55,4.05,5.06,7.5,7.4,15.1,14.72,22.65,22.07.54.52,1.01,1.1,2.08,2.26-4.91,1.03-9.23,2.43-13.62,2.73-4.59.31-4.33,2.93-3.85,5.94.52,3.23,1.11,6.47,1.97,9.63,1.13,4.11-.04,7.76-1.71,11.39-9.23,20.15-18.46,40.29-27.69,60.44-.74,1.61-1.61,3.18-2.13,4.86-1.2,3.88-3.49,3.4-6.44,2.06-14.07-6.39-28.19-12.69-42.31-18.97-1.08-.48-2.34-.55-3.51-.82-.27.27-.54.55-.8.82,1.5,2.47,2.94,4.97,4.51,7.4,9.65,14.99,19.37,29.95,28.92,45,.67,1.06.81,3.2.19,4.24-8.81,14.64-17.53,29.35-26.81,43.69-9.63,14.87-19.53,29.59-29.89,43.95-10.73,14.87-21.76,29.56-33.45,43.69-5.09,6.15-12,10.84-18.3,15.94-15.65,12.66-31.32,25.3-47.18,37.69-10.35,8.09-20.96,15.87-31.61,23.58-18.87,13.65-37.84,27.16-56.79,40.7-2.88,2.06-5.78,4.15-8.88,5.84-1.13.62-3.16.66-4.28.05-7.66-4.17-15.18-8.59-22.74-12.93-4.86-2.79-5.54-2.49-6.86,2.86-3.06,12.36-6.18,24.71-9.26,37.07-.8,3.22-2.23,4.33-5.96,3.71-11.07-1.85-22.25-3.09-33.39-4.53-2.04-.26-3.3.37-3.6,2.77-.95,7.39-2.19,14.74-3.14,22.12-.32,2.49-1.73,3.5-3.86,4-14.72,3.41-29.49,6.63-44.16,10.28-11,2.73-21.83,6.11-32.79,8.99-5.72,1.5-11.55,2.57-17.65,3.86Z"/>
  </g>
  <text class="cls-7" transform="translate(1645.2 1087)"><tspan class="cls-2" x="0" y="0">Me</tspan><tspan class="cls-6" x="1500" y="0">r</tspan><tspan class="cls-2" x="1884.99" y="0">ci</tspan><tspan x="2743.99" y="0">a’s Q</tspan><tspan class="cls-1" x="5151.96" y="0">u</tspan><tspan class="cls-8" x="5750.96" y="0">i</tspan><tspan class="cls-9" x="6026.96" y="0">l</tspan><tspan x="6329.96" y="0">l</tspan></text>
</svg>